<svg width="512" height="512" viewBox="0 0 512 512" fill="none" xmlns="http://www.w3.org/2000/svg">
  <!-- Background -->
  <rect width="512" height="512" rx="115" fill="url(#gradient)"/>

  <!-- Clipboard shape -->
  <path d="M156 120h200c17.673 0 32 14.327 32 32v248c0 17.673-14.327 32-32 32H156c-17.673 0-32-14.327-32-32V152c0-17.673 14.327-32 32-32z" fill="white" opacity="0.95"/>

  <!-- Clipboard clip -->
  <rect x="216" y="100" width="80" height="40" rx="8" fill="white" opacity="0.95"/>
  <rect x="226" y="110" width="60" height="20" rx="4" fill="#3B82F6"/>

  <!-- Checkmark items -->
  <!-- Item 1 - Checked -->
  <circle cx="180" cy="200" r="16" fill="#10B981" stroke="none"/>
  <path d="M174 200l4 4 8-8" stroke="white" stroke-width="3" stroke-linecap="round" stroke-linejoin="round" fill="none"/>
  <line x1="210" y1="200" x2="340" y2="200" stroke="#9CA3AF" stroke-width="3" stroke-linecap="round" opacity="0.5"/>

  <!-- Item 2 - Checked -->
  <circle cx="180" cy="260" r="16" fill="#10B981" stroke="none"/>
  <path d="M174 260l4 4 8-8" stroke="white" stroke-width="3" stroke-linecap="round" stroke-linejoin="round" fill="none"/>
  <line x1="210" y1="260" x2="340" y2="260" stroke="#9CA3AF" stroke-width="3" stroke-linecap="round" opacity="0.5"/>

  <!-- Item 3 - Unchecked -->
  <circle cx="180" cy="320" r="16" fill="none" stroke="#3B82F6" stroke-width="3"/>
  <line x1="210" y1="320" x2="340" y2="320" stroke="#3B82F6" stroke-width="3" stroke-linecap="round"/>

  <!-- Item 4 - Unchecked -->
  <circle cx="180" cy="380" r="16" fill="none" stroke="#3B82F6" stroke-width="3"/>
  <line x1="210" y1="380" x2="280" y2="380" stroke="#3B82F6" stroke-width="3" stroke-linecap="round"/>

  <!-- Gradient definition -->
  <defs>
    <linearGradient id="gradient" x1="0%" y1="0%" x2="100%" y2="100%">
      <stop offset="0%" style="stop-color:#3B82F6;stop-opacity:1" />
      <stop offset="100%" style="stop-color:#2563EB;stop-opacity:1" />
    </linearGradient>
  </defs>
</svg>
